# xmcd
#
# Track frame offsets:
# 150
# 15839
# 30944
# 43819
# 56958
# 72842
# 86533
# 97939
# 111210
# 123749
# 139433
# 153933
# 167290
# 180101
# 194638
# 208826
#
# Disc length: 2951 seconds
#
#
# Revision: 0
# Processed by: cddbd v1.5.2PL0 Copyright (c) Steve Scherf et al.
# Submitted via: FreeRIP 2.96 
#
DISCID=d20b8510
DTITLE=Alfredo de Angelis - Fumando espero
DYEAR=1900
DGENRE=Tango
TTITLE0=Fumando Espero
TTITLE1=Tu Corazon
TTITLE2=Carrillon De La Merced
TTITLE3=Milonguita
TTITLE4=Remembranza
TTITLE5=Que Nadie Sepa Mi Sufrir
TTITLE6=Quien Mas Quien Menos
TTITLE7=Tus Besos Fueron Mios
TTITLE8=Que Lento Corre El Tren
TTITLE9=La Novena
TTITLE10=La Flor Del Palmar
TTITLE11=Incomparable
TTITLE12=Nobleza De Arrabal
TTITLE13=Sonsa
TTITLE14=Nieve De Amor
TTITLE15=Mentiras Piadosas
EXTD=Colection Reliquias
EXTT0=
EXTT1=
EXTT2=
EXTT3=
EXTT4=
EXTT5=
EXTT6=
EXTT7=
EXTT8=
EXTT9=
EXTT10=
EXTT11=
EXTT12=
EXTT13=
EXTT14=
EXTT15=
PLAYORDER=
